<?xml version="1.0" encoding="UTF-8" standalone="no"?>
<!DOCTYPE svg PUBLIC "-//W3C//DTD SVG 1.1//EN" "http://www.w3.org/Graphics/SVG/1.1/DTD/svg11.dtd">
<svg xmlns:dc="http://purl.org/dc/elements/1.1/" xmlns="http://www.w3.org/2000/svg" version="1.1" xmlns:xl="http://www.w3.org/1999/xlink" viewBox="-408.5 -420.0874 1979 1211.5627" width="1979" height="1211.5627">
  <defs/>
  <g id="Canvas_1" stroke-dasharray="none" stroke="none" stroke-opacity="1" fill="none" fill-opacity="1">
    <title>Canvas 1</title>
    <rect fill="white" x="-408.5" y="-420.0874" width="1979" height="1211.5627"/>
    <g id="Canvas_1_Layer_1">
      <title>Layer 1</title>
      <g id="Graphic_2">
        <rect x="120" y="162" width="177" height="81" fill="white"/>
        <rect x="120" y="162" width="177" height="81" stroke="black" stroke-linecap="round" stroke-linejoin="round" stroke-width="1"/>
        <text transform="translate(125 193.276)" fill="black">
          <tspan font-family="Helvetica Neue" font-size="16" fill="black" x="62.46" y="15">Agent</tspan>
        </text>
      </g>
      <g id="Graphic_3">
        <rect x="143.5" y="325" width="130" height="42" fill="white"/>
        <rect x="143.5" y="325" width="130" height="42" stroke="black" stroke-linecap="round" stroke-linejoin="round" stroke-width="1"/>
        <text transform="translate(148.5 336.776)" fill="black">
          <tspan font-family="Helvetica Neue" font-size="16" fill="black" x="18.968" y="15">foaf:Person</tspan>
        </text>
      </g>
      <g id="Graphic_4">
        <rect x="143.5" y="386" width="130" height="42" fill="white"/>
        <rect x="143.5" y="386" width="130" height="42" stroke="black" stroke-linecap="round" stroke-linejoin="round" stroke-width="1"/>
        <text transform="translate(148.5 397.776)" fill="black">
          <tspan font-family="Helvetica Neue" font-size="16" fill="black" x="2.496" y="15">mo:MusicGroup</tspan>
        </text>
      </g>
      <g id="Line_5">
        <line x1="208.5" y1="243" x2="208.5" y2="325" stroke="black" stroke-linecap="round" stroke-linejoin="round" stroke-width="1"/>
      </g>
      <g id="Graphic_6">
        <ellipse cx="208.5" cy="282.1355" rx="36.2363079019721" ry="18.8514574734569" fill="white"/>
        <ellipse cx="208.5" cy="282.1355" rx="36.2363079019721" ry="18.8514574734569" stroke="black" stroke-linecap="round" stroke-linejoin="round" stroke-width="1"/>
        <text transform="translate(184.511 273.9395)" fill="black">
          <tspan font-family="Helvetica Neue" font-size="14" fill="black" x="0" y="13">rdf:type</tspan>
        </text>
      </g>
      <g id="Line_7">
        <line x1="208.5" y1="367" x2="208.5" y2="386" stroke="black" stroke-linecap="round" stroke-linejoin="round" stroke-width="1"/>
      </g>
      <g id="Graphic_14">
        <rect x="998" y="-91.16002" width="130" height="42" fill="white"/>
        <rect x="998" y="-91.16002" width="130" height="42" stroke="black" stroke-linecap="round" stroke-linejoin="round" stroke-width="1"/>
        <text transform="translate(1003 -79.38402)" fill="black">
          <tspan font-family="Helvetica Neue" font-size="16" fill="black" x="18.968" y="15">foaf:Person</tspan>
        </text>
      </g>
      <g id="Graphic_13">
        <rect x="998" y="-28.320045" width="130" height="42" fill="white"/>
        <rect x="998" y="-28.320045" width="130" height="42" stroke="black" stroke-linecap="round" stroke-linejoin="round" stroke-width="1"/>
        <text transform="translate(1003 -16.544044)" fill="black">
          <tspan font-family="Helvetica Neue" font-size="16" fill="black" x="2.496" y="15">mo:MusicGroup</tspan>
        </text>
      </g>
      <g id="Graphic_11">
        <ellipse cx="1063" cy="53.37136" rx="36.236307901972" ry="18.851457473457" fill="white"/>
        <ellipse cx="1063" cy="53.37136" rx="36.236307901972" ry="18.851457473457" stroke="black" stroke-linecap="round" stroke-linejoin="round" stroke-width="1"/>
        <text transform="translate(1039.011 45.17536)" fill="black">
          <tspan font-family="Helvetica Neue" font-size="14" fill="black" x="0" y="13">rdf:type</tspan>
        </text>
      </g>
      <g id="Graphic_16">
        <rect x="722" y="167.75089" width="177" height="81" fill="white"/>
        <rect x="722" y="167.75089" width="177" height="81" stroke="black" stroke-linecap="round" stroke-linejoin="round" stroke-width="1"/>
        <text transform="translate(727 199.02689)" fill="black">
          <tspan font-family="Helvetica Neue" font-size="16" fill="black" x="16.972" y="15">Relationship Event</tspan>
        </text>
      </g>
      <g id="Line_17">
        <line x1="1063" y1="113.73168" x2="1063" y2="72.2228" stroke="black" stroke-linecap="round" stroke-linejoin="round" stroke-width="1"/>
      </g>
      <g id="Line_18">
        <line x1="1063" y1="13.679955" x2="1063" y2="34.519924" stroke="black" stroke-linecap="round" stroke-linejoin="round" stroke-width="1"/>
      </g>
      <g id="Line_19">
        <line x1="1063" y1="-49.16002" x2="1063" y2="-28.320045" stroke="black" stroke-linecap="round" stroke-linejoin="round" stroke-width="1"/>
      </g>
      <g id="Line_23">
        <path d="M 297 202.5 C 297 202.5 406.9761 -398.03333 527.38074 -396.40407 C 647.7854 -394.7748 722 208.25089 722 208.25089" stroke="black" stroke-linecap="round" stroke-linejoin="round" stroke-width="1"/>
      </g>
      <g id="Line_31">
        <path d="M 297 202.5 C 297 202.5 404.20717 -365.5138 524.6118 -363.88453 C 645.0164 -362.2553 722 208.25089 722 208.25089" stroke="black" stroke-linecap="round" stroke-linejoin="round" stroke-width="1"/>
      </g>
      <g id="Line_33">
        <path d="M 297 202.5 C 297 202.5 409.4013 -198.67063 529.8059 -197.04138 C 650.21054 -195.41212 722 208.25089 722 208.25089" stroke="black" stroke-linecap="round" stroke-linejoin="round" stroke-width="1"/>
      </g>
      <g id="Line_35">
        <path d="M 297 202.5 C 297 202.5 410.4013 -66.2722 530.8059 -64.64294 C 651.21054 -63.01369 722 208.25089 722 208.25089" stroke="black" stroke-linecap="round" stroke-linejoin="round" stroke-width="1"/>
      </g>
      <g id="Graphic_37">
        <rect x="1201" y="56.369164" width="141" height="42" fill="white"/>
        <rect x="1201" y="56.369164" width="141" height="42" stroke="black" stroke-linecap="round" stroke-linejoin="round" stroke-width="1"/>
        <text transform="translate(1206 68.145165)" fill="black">
          <tspan font-family="Helvetica Neue" font-size="16" fill="black" x="32.756" y="15">rdfs:label</tspan>
        </text>
      </g>
      <g id="Graphic_38">
        <rect x="1201" y="113.73168" width="141" height="42" fill="white"/>
        <rect x="1201" y="113.73168" width="141" height="42" stroke="black" stroke-linecap="round" stroke-linejoin="round" stroke-width="1"/>
        <text transform="translate(1206 125.50768)" fill="black">
          <tspan font-family="Helvetica Neue" font-size="16" fill="black" x="52.58" y="15">@id</tspan>
        </text>
      </g>
      <g id="Line_40">
        <line x1="1128" y1="134.73168" x2="1201" y2="77.36916" stroke="black" stroke-linecap="round" stroke-linejoin="round" stroke-width="1"/>
      </g>
      <g id="Line_41">
        <line x1="1128" y1="134.73168" x2="1201" y2="134.73168" stroke="black" stroke-linecap="round" stroke-linejoin="round" stroke-width="1"/>
      </g>
      <g id="Graphic_43">
        <rect x="1313.4482" y="204.0574" width="241.12782" height="42" fill="white"/>
        <rect x="1313.4482" y="204.0574" width="241.12782" height="42" stroke="black" stroke-linecap="round" stroke-linejoin="round" stroke-width="1"/>
        <text transform="translate(1318.4482 215.8334)" fill="black">
          <tspan font-family="Helvetica Neue" font-size="16" fill="black" x="102.64391" y="15">@id</tspan>
        </text>
      </g>
      <g id="Graphic_44">
        <rect x="1313.4482" y="262.95757" width="241.12782" height="42" fill="white"/>
        <rect x="1313.4482" y="262.95757" width="241.12782" height="42" stroke="black" stroke-linecap="round" stroke-linejoin="round" stroke-width="1"/>
        <text transform="translate(1318.4482 274.73357)" fill="black">
          <tspan font-family="Helvetica Neue" font-size="16" fill="black" x="37.47591" y="15">semlab:blockTextURL</tspan>
        </text>
      </g>
      <g id="Graphic_45">
        <rect x="1313.4482" y="321.85775" width="241.12782" height="42" fill="white"/>
        <rect x="1313.4482" y="321.85775" width="241.12782" height="42" stroke="black" stroke-linecap="round" stroke-linejoin="round" stroke-width="1"/>
        <text transform="translate(1318.4482 333.63375)" fill="black">
          <tspan font-family="Helvetica Neue" font-size="16" fill="black" x="6.8039114" y="15">semlab:relationshipGeneration</tspan>
        </text>
      </g>
      <g id="Line_46">
        <line x1="1128" y1="271.27216" x2="1313.4482" y2="225.0574" stroke="black" stroke-linecap="round" stroke-linejoin="round" stroke-width="1"/>
      </g>
      <g id="Line_47">
        <line x1="1128" y1="271.27216" x2="1313.4482" y2="283.95757" stroke="black" stroke-linecap="round" stroke-linejoin="round" stroke-width="1"/>
      </g>
      <g id="Line_48">
        <line x1="1128" y1="271.27216" x2="1313.4482" y2="342.85775" stroke="black" stroke-linecap="round" stroke-linejoin="round" stroke-width="1"/>
      </g>
      <g id="Graphic_50">
        <rect x="998" y="113.73168" width="130" height="42" fill="white"/>
        <rect x="998" y="113.73168" width="130" height="42" stroke="black" stroke-linecap="round" stroke-linejoin="round" stroke-width="1"/>
        <text transform="translate(1003 125.50768)" fill="black">
          <tspan font-family="Helvetica Neue" font-size="16" fill="black" x="12" y="15">Agent / Place</tspan>
        </text>
      </g>
      <g id="Graphic_51">
        <rect x="998" y="250.27216" width="130" height="42" fill="white"/>
        <rect x="998" y="250.27216" width="130" height="42" stroke="black" stroke-linecap="round" stroke-linejoin="round" stroke-width="1"/>
        <text transform="translate(1003 262.04816)" fill="black">
          <tspan font-family="Helvetica Neue" font-size="16" fill="black" x="39.704" y="15">Block</tspan>
        </text>
      </g>
      <g id="Graphic_52">
        <rect x="-398" y="50.35883" width="182" height="42" fill="white"/>
        <rect x="-398" y="50.35883" width="182" height="42" stroke="black" stroke-linecap="round" stroke-linejoin="round" stroke-width="1"/>
        <text transform="translate(-393 62.13483)" fill="black">
          <tspan font-family="Helvetica Neue" font-size="16" fill="black" x="33.544" y="15">Demographica</tspan>
        </text>
      </g>
      <g id="Line_53">
        <line x1="120" y1="202.5" x2="-216" y2="71.35883" stroke="black" stroke-linecap="round" stroke-linejoin="round" stroke-width="1"/>
      </g>
      <g id="Graphic_57">
        <rect x="-398" y="120.10883" width="182" height="42" fill="white"/>
        <rect x="-398" y="120.10883" width="182" height="42" stroke="black" stroke-linecap="round" stroke-linejoin="round" stroke-width="1"/>
        <text transform="translate(-393 131.88483)" fill="black">
          <tspan font-family="Helvetica Neue" font-size="16" fill="black" x="45.992" y="15">Q ID Literal</tspan>
        </text>
      </g>
      <g id="Line_56">
        <line x1="120" y1="202.5" x2="-216" y2="141.10883" stroke="black" stroke-linecap="round" stroke-linejoin="round" stroke-width="1"/>
      </g>
      <g id="Graphic_60">
        <rect x="-398" y="189.85883" width="182" height="42" fill="white"/>
        <rect x="-398" y="189.85883" width="182" height="42" stroke="black" stroke-linecap="round" stroke-linejoin="round" stroke-width="1"/>
        <text transform="translate(-393 201.63483)" fill="black">
          <tspan font-family="Helvetica Neue" font-size="16" fill="black" x="46.296" y="15">URL Literal</tspan>
        </text>
      </g>
      <g id="Line_59">
        <line x1="120" y1="202.5" x2="-216" y2="210.85883" stroke="black" stroke-linecap="round" stroke-linejoin="round" stroke-width="1"/>
      </g>
      <g id="Line_63">
        <path d="M 297 202.5 C 297 202.5 400.84 -332.80226 521.2446 -331.173 C 641.6492 -329.54376 722 208.25089 722 208.25089" stroke="black" stroke-linecap="round" stroke-linejoin="round" stroke-width="1"/>
      </g>
      <g id="Line_65">
        <path d="M 297 202.5 C 297 202.5 404.11677 -299.35037 524.5214 -297.7211 C 644.926 -296.09186 722 208.25089 722 208.25089" stroke="black" stroke-linecap="round" stroke-linejoin="round" stroke-width="1"/>
      </g>
      <g id="Line_67">
        <path d="M 297 202.5 C 297 202.5 408.73395 -266.9393 529.1386 -265.31004 C 649.5432 -263.6808 722 208.25089 722 208.25089" stroke="black" stroke-linecap="round" stroke-linejoin="round" stroke-width="1"/>
      </g>
      <g id="Line_69">
        <path d="M 297 202.5 C 297 202.5 408.28083 -232.22028 528.68546 -230.59102 C 649.0901 -228.96177 722 208.25089 722 208.25089" stroke="black" stroke-linecap="round" stroke-linejoin="round" stroke-width="1"/>
      </g>
      <g id="Line_71">
        <path d="M 297 202.5 C 297 202.5 414.81973 -165.26704 535.22436 -163.63778 C 655.629 -162.00853 722 208.25089 722 208.25089" stroke="black" stroke-linecap="round" stroke-linejoin="round" stroke-width="1"/>
      </g>
      <g id="Line_73">
        <path d="M 297 202.5 C 297 202.5 406.94035 -98.77876 527.345 -97.1495 C 647.7496 -95.52025 722 208.25089 722 208.25089" stroke="black" stroke-linecap="round" stroke-linejoin="round" stroke-width="1"/>
      </g>
      <g id="Line_75">
        <path d="M 297 202.5 C 297 202.5 412.0302 -130.64623 532.4348 -129.01697 C 652.83945 -127.38772 722 208.25089 722 208.25089" stroke="black" stroke-linecap="round" stroke-linejoin="round" stroke-width="1"/>
      </g>
      <g id="Line_77">
        <path d="M 297 202.5 C 297 202.5 400.64347 -31.860405 521.0481 -30.23115 C 641.4527 -28.601896 722 208.25089 722 208.25089" stroke="black" stroke-linecap="round" stroke-linejoin="round" stroke-width="1"/>
      </g>
      <g id="Line_79">
        <path d="M 297 202.5 C 297 202.5 396.9346 34.578817 517.33924 36.20807 C 637.7439 37.837326 722 208.25089 722 208.25089" stroke="black" stroke-linecap="round" stroke-linejoin="round" stroke-width="1"/>
      </g>
      <g id="Line_81">
        <path d="M 297 202.5 C 297 202.5 402.20805 102.43819 522.6127 104.06745 C 643.0173 105.6967 722 208.25089 722 208.25089" stroke="black" stroke-linecap="round" stroke-linejoin="round" stroke-width="1"/>
      </g>
      <g id="Line_83">
        <path d="M 297 202.5 C 297 202.5 401.8388 .46235863 522.2434 2.0916132 C 642.64804 3.720868 722 208.25089 722 208.25089" stroke="black" stroke-linecap="round" stroke-linejoin="round" stroke-width="1"/>
      </g>
      <g id="Line_85">
        <path d="M 297 202.5 C 297 202.5 405.3369 67.62346 525.7415 69.25272 C 646.14615 70.88197 722 208.25089 722 208.25089" stroke="black" stroke-linecap="round" stroke-linejoin="round" stroke-width="1"/>
      </g>
      <g id="Line_87">
        <path d="M 297 202.5 C 297 202.5 373.3525 137.07268 493.75715 138.70194 C 614.1618 140.33119 722 208.25089 722 208.25089" stroke="black" stroke-linecap="round" stroke-linejoin="round" stroke-width="1"/>
      </g>
      <g id="Graphic_86">
        <rect x="450.9012" y="56.478135" width="121.482" height="26.391998" fill="white"/>
        <rect x="450.9012" y="56.478135" width="121.482" height="26.391998" stroke="black" stroke-linecap="round" stroke-linejoin="round" stroke-width="1"/>
        <text transform="translate(455.9012 61.478135)" fill="black">
          <tspan font-family="Helvetica Neue" font-size="14" fill="black" x="0" y="13">schema:worksFor</tspan>
        </text>
      </g>
      <g id="Line_89">
        <path d="M 297 202.5 C 297 202.5 386.99237 175.13873 507.397 176.76799 C 627.8016 178.39724 722 208.25089 722 208.25089" stroke="black" stroke-linecap="round" stroke-linejoin="round" stroke-width="1"/>
      </g>
      <g id="Line_91">
        <path d="M 297 202.5 C 297 202.5 337.84784 210.69342 458.25247 212.32268 C 578.6571 213.95193 722 208.25089 722 208.25089" stroke="black" stroke-linecap="round" stroke-linejoin="round" stroke-width="1"/>
      </g>
      <g id="Line_93">
        <path d="M 297 202.5 C 297 202.5 359.02362 280.63425 479.42825 282.2635 C 599.8329 283.89276 722 208.25089 722 208.25089" stroke="black" stroke-linecap="round" stroke-linejoin="round" stroke-width="1"/>
      </g>
      <g id="Line_95">
        <path d="M 297 202.5 C 297 202.5 343.754 247.88816 464.1586 249.5174 C 584.5632 251.14667 722 208.25089 722 208.25089" stroke="black" stroke-linecap="round" stroke-linejoin="round" stroke-width="1"/>
      </g>
      <g id="Graphic_98">
        <rect x="-398" y="254.89427" width="182" height="42" fill="white"/>
        <rect x="-398" y="254.89427" width="182" height="42" stroke="black" stroke-linecap="round" stroke-linejoin="round" stroke-width="1"/>
        <text transform="translate(-393 266.67027)" fill="black">
          <tspan font-family="Helvetica Neue" font-size="16" fill="black" x="71.928" y="15">City</tspan>
        </text>
      </g>
      <g id="Line_97">
        <line x1="120" y1="202.5" x2="-216" y2="275.89427" stroke="black" stroke-linecap="round" stroke-linejoin="round" stroke-width="1"/>
      </g>
      <g id="Graphic_102">
        <rect x="980" y="-154" width="166" height="42" fill="white"/>
        <rect x="980" y="-154" width="166" height="42" stroke="black" stroke-linecap="round" stroke-linejoin="round" stroke-width="1"/>
        <text transform="translate(985 -142.224)" fill="black">
          <tspan font-family="Helvetica Neue" font-size="16" fill="black" x="6.416" y="15">semlab:MusicVenue</tspan>
        </text>
      </g>
      <g id="Line_103">
        <line x1="1063" y1="-91.16002" x2="1063" y2="-112" stroke="black" stroke-linecap="round" stroke-linejoin="round" stroke-width="1"/>
      </g>
      <g id="Line_105">
        <path d="M 297 202.5 C 297 202.5 350.23456 316.27907 470.6392 317.90832 C 591.0438 319.53758 722 208.25089 722 208.25089" stroke="black" stroke-linecap="round" stroke-linejoin="round" stroke-width="1"/>
      </g>
      <g id="Line_107">
        <path d="M 297 202.5 C 297 202.5 362.66815 348.55666 483.0728 350.1859 C 603.4774 351.81517 722 208.25089 722 208.25089" stroke="black" stroke-linecap="round" stroke-linejoin="round" stroke-width="1"/>
      </g>
      <g id="Line_109">
        <path d="M 297 202.5 C 297 202.5 368.7111 381.75545 489.11575 383.3847 C 609.5204 385.01396 722 208.25089 722 208.25089" stroke="black" stroke-linecap="round" stroke-linejoin="round" stroke-width="1"/>
      </g>
      <g id="Line_111">
        <path d="M 297 202.5 C 297 202.5 362.72284 415.40016 483.12747 417.0294 C 603.5321 418.65867 722 208.25089 722 208.25089" stroke="black" stroke-linecap="round" stroke-linejoin="round" stroke-width="1"/>
      </g>
      <g id="Line_113">
        <path d="M 297 202.5 C 297 202.5 364.85956 447.25563 485.2642 448.8849 C 605.6688 450.51414 722 208.25089 722 208.25089" stroke="black" stroke-linecap="round" stroke-linejoin="round" stroke-width="1"/>
      </g>
      <g id="Line_115">
        <path d="M 297 202.5 C 297 202.5 363.22284 482.4275 483.62747 484.05676 C 604.0321 485.686 722 208.25089 722 208.25089" stroke="black" stroke-linecap="round" stroke-linejoin="round" stroke-width="1"/>
      </g>
      <g id="Line_117">
        <path d="M 297 202.5 C 297 202.5 359.0197 515.7205 479.42434 517.3497 C 599.829 518.979 722 208.25089 722 208.25089" stroke="black" stroke-linecap="round" stroke-linejoin="round" stroke-width="1"/>
      </g>
      <g id="Line_119">
        <path d="M 297 202.5 C 297 202.5 364.4377 551.02907 484.8423 552.6583 C 605.24694 554.2876 722 208.25089 722 208.25089" stroke="black" stroke-linecap="round" stroke-linejoin="round" stroke-width="1"/>
      </g>
      <g id="Line_121">
        <path d="M 297 202.5 C 297 202.5 360.64862 586.4119 481.05325 588.0411 C 601.4579 589.6704 722 208.25089 722 208.25089" stroke="black" stroke-linecap="round" stroke-linejoin="round" stroke-width="1"/>
      </g>
      <g id="Line_123">
        <path d="M 297 202.5 C 297 202.5 368.7736 657.45485 489.17825 659.0841 C 609.5829 660.71336 722 208.25089 722 208.25089" stroke="black" stroke-linecap="round" stroke-linejoin="round" stroke-width="1"/>
      </g>
      <g id="Line_125">
        <path d="M 297 202.5 C 297 202.5 361.66425 620.9431 482.0689 622.5724 C 602.4735 624.20164 722 208.25089 722 208.25089" stroke="black" stroke-linecap="round" stroke-linejoin="round" stroke-width="1"/>
      </g>
      <g id="Line_127">
        <path d="M 297 202.5 C 297 202.5 361.30097 695.7322 481.7056 697.36145 C 602.1102 698.9907 722 208.25089 722 208.25089" stroke="black" stroke-linecap="round" stroke-linejoin="round" stroke-width="1"/>
      </g>
      <g id="Line_129">
        <path d="M 297 202.5 C 297 202.5 360.02753 766.2869 480.43215 767.9161 C 600.8368 769.5454 722 208.25089 722 208.25089" stroke="black" stroke-linecap="round" stroke-linejoin="round" stroke-width="1"/>
      </g>
      <g id="Line_131">
        <path d="M 297 202.5 C 297 202.5 360.1916 729.64235 480.5962 731.2716 C 601.00084 732.9009 722 208.25089 722 208.25089" stroke="black" stroke-linecap="round" stroke-linejoin="round" stroke-width="1"/>
      </g>
      <g id="Graphic_136">
        <rect x="-398" y="319.9297" width="182" height="42" fill="white"/>
        <rect x="-398" y="319.9297" width="182" height="42" stroke="black" stroke-linecap="round" stroke-linejoin="round" stroke-width="1"/>
        <text transform="translate(-393 331.7057)" fill="black">
          <tspan font-family="Helvetica Neue" font-size="16" fill="black" x="44.504" y="15">Occupation</tspan>
        </text>
      </g>
      <g id="Line_135">
        <line x1="120" y1="202.5" x2="-216" y2="340.9297" stroke="black" stroke-linecap="round" stroke-linejoin="round" stroke-width="1"/>
      </g>
      <g id="Graphic_104">
        <rect x="447.626" y="301.70712" width="122.784" height="26.391998" fill="white"/>
        <rect x="447.626" y="301.70712" width="122.784" height="26.391998" stroke="black" stroke-linecap="round" stroke-linejoin="round" stroke-width="1"/>
        <text transform="translate(452.626 306.70712)" fill="black">
          <tspan font-family="Helvetica Neue" font-size="14" fill="black" x="0" y="13">semlab:lifePartner</tspan>
        </text>
      </g>
      <g id="Graphic_108">
        <rect x="398.24904" y="369.56777" width="210.2" height="26.391998" fill="white"/>
        <rect x="398.24904" y="369.56777" width="210.2" height="26.391998" stroke="black" stroke-linecap="round" stroke-linejoin="round" stroke-width="1"/>
        <text transform="translate(403.24904 374.56777)" fill="black">
          <tspan font-family="Helvetica Neue" font-size="14" fill="black" x="36948222e-20" y="13">semlab:attendedPerformanceOf</tspan>
        </text>
      </g>
      <g id="Graphic_110">
        <rect x="424.004" y="402.88614" width="149.496" height="26.391998" fill="white"/>
        <rect x="424.004" y="402.88614" width="149.496" height="26.391998" stroke="black" stroke-linecap="round" stroke-linejoin="round" stroke-width="1"/>
        <text transform="translate(429.004 407.88614)" fill="black">
          <tspan font-family="Helvetica Neue" font-size="14" fill="black" x="0" y="13">semlab:knowsOfPlace</tspan>
        </text>
      </g>
      <g id="Graphic_112">
        <rect x="443.94274" y="435.0538" width="106.74" height="26.391998" fill="white"/>
        <rect x="443.94274" y="435.0538" width="106.74" height="26.391998" stroke="black" stroke-linecap="round" stroke-linejoin="round" stroke-width="1"/>
        <text transform="translate(448.94274 440.0538)" fill="black">
          <tspan font-family="Helvetica Neue" font-size="14" fill="black" x="7958079e-19" y="13">semlab:booked</tspan>
        </text>
      </g>
      <g id="Graphic_114">
        <rect x="413.61364" y="470.26755" width="161.704" height="26.391998" fill="white"/>
        <rect x="413.61364" y="470.26755" width="161.704" height="26.391998" stroke="black" stroke-linecap="round" stroke-linejoin="round" stroke-width="1"/>
        <text transform="translate(418.61363 475.26755)" fill="black">
          <tspan font-family="Helvetica Neue" font-size="14" fill="black" x="7673862e-19" y="13">semlab:frequentedPlace</tspan>
        </text>
      </g>
      <g id="Graphic_106">
        <rect x="401.4013" y="335.6318" width="208.898" height="26.391998" fill="white"/>
        <rect x="401.4013" y="335.6318" width="208.898" height="26.391998" stroke="black" stroke-linecap="round" stroke-linejoin="round" stroke-width="1"/>
        <text transform="translate(406.4013 340.6318)" fill="black">
          <tspan font-family="Helvetica Neue" font-size="14" fill="black" x="5115908e-19" y="13">semlab:attendedPerformanceAt</tspan>
        </text>
      </g>
      <g id="Graphic_116">
        <rect x="446.3356" y="503.45925" width="88.064" height="26.391998" fill="white"/>
        <rect x="446.3356" y="503.45925" width="88.064" height="26.391998" stroke="black" stroke-linecap="round" stroke-linejoin="round" stroke-width="1"/>
        <text transform="translate(451.3356 508.45925)" fill="black">
          <tspan font-family="Helvetica Neue" font-size="14" fill="black" x="0" y="13">rel:mentorOf</tspan>
        </text>
      </g>
      <g id="Graphic_118">
        <rect x="410.45725" y="539.1332" width="163.51" height="26.391998" fill="white"/>
        <rect x="410.45725" y="539.1332" width="163.51" height="26.391998" stroke="black" stroke-linecap="round" stroke-linejoin="round" stroke-width="1"/>
        <text transform="translate(415.45725 544.1332)" fill="black">
          <tspan font-family="Helvetica Neue" font-size="14" fill="black" x="0" y="13">semlab:recordedAtPlace</tspan>
        </text>
      </g>
      <g id="Graphic_120">
        <rect x="415.70607" y="574.46155" width="145.632" height="26.391998" fill="white"/>
        <rect x="415.70607" y="574.46155" width="145.632" height="26.391998" stroke="black" stroke-linecap="round" stroke-linejoin="round" stroke-width="1"/>
        <text transform="translate(420.70607 579.46155)" fill="black">
          <tspan font-family="Helvetica Neue" font-size="14" fill="black" x="7105427e-19" y="13">semlab:contributedTo</tspan>
        </text>
      </g>
      <g id="Graphic_122">
        <rect x="432.1223" y="645.8035" width="121.272" height="26.391998" fill="white"/>
        <rect x="432.1223" y="645.8035" width="121.272" height="26.391998" stroke="black" stroke-linecap="round" stroke-linejoin="round" stroke-width="1"/>
        <text transform="translate(437.1223 650.8035)" fill="black">
          <tspan font-family="Helvetica Neue" font-size="14" fill="black" x="42632564e-20" y="13">semlab:studentOf</tspan>
        </text>
      </g>
      <g id="Graphic_124">
        <rect x="418.1751" y="609.0694" width="140.676" height="26.391998" fill="white"/>
        <rect x="418.1751" y="609.0694" width="140.676" height="26.391998" stroke="black" stroke-linecap="round" stroke-linejoin="round" stroke-width="1"/>
        <text transform="translate(423.1751 614.0694)" fill="black">
          <tspan font-family="Helvetica Neue" font-size="14" fill="black" x="0" y="13">semlab:wasInvitedTo</tspan>
        </text>
      </g>
      <g id="Graphic_126">
        <rect x="420.56974" y="683.9829" width="131.632" height="26.391998" fill="white"/>
        <rect x="420.56974" y="683.9829" width="131.632" height="26.391998" stroke="black" stroke-linecap="round" stroke-linejoin="round" stroke-width="1"/>
        <text transform="translate(425.56974 688.9829)" fill="black">
          <tspan font-family="Helvetica Neue" font-size="14" fill="black" x="7105427e-19" y="13">semlab:educatedAt</tspan>
        </text>
      </g>
      <g id="Graphic_128">
        <rect x="412.23143" y="754.5833" width="144.064" height="26.391998" fill="white"/>
        <rect x="412.23143" y="754.5833" width="144.064" height="26.391998" stroke="black" stroke-linecap="round" stroke-linejoin="round" stroke-width="1"/>
        <text transform="translate(417.23143 759.5833)" fill="black">
          <tspan font-family="Helvetica Neue" font-size="14" fill="black" x="0" y="13">semlab:supervisedBy</tspan>
        </text>
      </g>
      <g id="Graphic_130">
        <rect x="415.36617" y="717.9084" width="139.136" height="26.391998" fill="white"/>
        <rect x="415.36617" y="717.9084" width="139.136" height="26.391998" stroke="black" stroke-linecap="round" stroke-linejoin="round" stroke-width="1"/>
        <text transform="translate(420.36617 722.9084)" fill="black">
          <tspan font-family="Helvetica Neue" font-size="14" fill="black" x="0" y="13">semlab:supervisorOf</tspan>
        </text>
      </g>
      <g id="Graphic_138"/>
      <g id="Graphic_141">
        <rect x="-398" y="384.96515" width="182" height="42" fill="white"/>
        <rect x="-398" y="384.96515" width="182" height="42" stroke="black" stroke-linecap="round" stroke-linejoin="round" stroke-width="1"/>
        <text transform="translate(-393 396.74115)" fill="black">
          <tspan font-family="Helvetica Neue" font-size="16" fill="black" x="57.552" y="15">Country</tspan>
        </text>
      </g>
      <g id="Line_140">
        <line x1="120" y1="202.5" x2="-216" y2="405.96515" stroke="black" stroke-linecap="round" stroke-linejoin="round" stroke-width="1"/>
      </g>
      <g id="Graphic_146">
        <rect x="-398" y="455" width="182" height="42" fill="white"/>
        <rect x="-398" y="455" width="182" height="42" stroke="black" stroke-linecap="round" stroke-linejoin="round" stroke-width="1"/>
        <text transform="translate(-393 466.776)" fill="black">
          <tspan font-family="Helvetica Neue" font-size="16" fill="black" x="8.952" y="15">Street Address Literal</tspan>
        </text>
      </g>
      <g id="Line_145">
        <line x1="120" y1="202.5" x2="-216" y2="476" stroke="black" stroke-linecap="round" stroke-linejoin="round" stroke-width="1"/>
      </g>
      <g id="Graphic_32">
        <rect x="485.72263" y="-210.11419" width="79.23" height="26.391998" fill="white"/>
        <rect x="485.72263" y="-210.11419" width="79.23" height="26.391998" stroke="black" stroke-linecap="round" stroke-linejoin="round" stroke-width="1"/>
        <text transform="translate(490.72263 -205.11419)" fill="black">
          <tspan font-family="Helvetica Neue" font-size="14" fill="black" x="0" y="13">rel:friendOf</tspan>
        </text>
      </g>
      <g id="Graphic_66">
        <rect x="453.5619" y="-278.4408" width="144.82" height="26.391998" fill="white"/>
        <rect x="453.5619" y="-278.4408" width="144.82" height="26.391998" stroke="black" stroke-linecap="round" stroke-linejoin="round" stroke-width="1"/>
        <text transform="translate(458.5619 -273.4408)" fill="black">
          <tspan font-family="Helvetica Neue" font-size="14" fill="black" x="0" y="13">mo:collaborated_with</tspan>
        </text>
      </g>
      <g id="Graphic_68">
        <rect x="487.1819" y="-243.69266" width="75.352" height="26.391998" fill="white"/>
        <rect x="487.1819" y="-243.69266" width="75.352" height="26.391998" stroke="black" stroke-linecap="round" stroke-linejoin="round" stroke-width="1"/>
        <text transform="translate(492.1819 -238.69266)" fill="black">
          <tspan font-family="Helvetica Neue" font-size="14" fill="black" x="0" y="13">rel:hasMet</tspan>
        </text>
      </g>
      <g id="Graphic_34">
        <rect x="457.14725" y="-77.76468" width="137.848" height="26.391998" fill="white"/>
        <rect x="457.14725" y="-77.76468" width="137.848" height="26.391998" stroke="black" stroke-linecap="round" stroke-linejoin="round" stroke-width="1"/>
        <text transform="translate(462.14725 -72.76468)" fill="black">
          <tspan font-family="Helvetica Neue" font-size="14" fill="black" x="8881784e-19" y="13">semlab:performedAt</tspan>
        </text>
      </g>
      <g id="Graphic_72">
        <rect x="484.00144" y="-110.32295" width="88.834" height="26.391998" fill="white"/>
        <rect x="484.00144" y="-110.32295" width="88.834" height="26.391998" stroke="black" stroke-linecap="round" stroke-linejoin="round" stroke-width="1"/>
        <text transform="translate(489.00144 -105.32295)" fill="black">
          <tspan font-family="Helvetica Neue" font-size="14" fill="black" x="0" y="13">lj:touredWith</tspan>
        </text>
      </g>
      <g id="Graphic_76">
        <rect x="454.3452" y="-43.337855" width="139.402" height="26.391998" fill="white"/>
        <rect x="454.3452" y="-43.337855" width="139.402" height="26.391998" stroke="black" stroke-linecap="round" stroke-linejoin="round" stroke-width="1"/>
        <text transform="translate(459.3452 -38.337855)" fill="black">
          <tspan font-family="Helvetica Neue" font-size="14" fill="black" x="0" y="13">semlab:playedUnder</tspan>
        </text>
      </g>
      <g id="Graphic_70">
        <rect x="484.16606" y="-176.51458" width="88.064" height="26.391998" fill="white"/>
        <rect x="484.16606" y="-176.51458" width="88.064" height="26.391998" stroke="black" stroke-linecap="round" stroke-linejoin="round" stroke-width="1"/>
        <text transform="translate(489.16607 -171.51458)" fill="black">
          <tspan font-family="Helvetica Neue" font-size="14" fill="black" x="0" y="13">rel:mentorOf</tspan>
        </text>
      </g>
      <g id="Graphic_74">
        <rect x="465.94265" y="-141.91861" width="118.64" height="26.391998" fill="white"/>
        <rect x="465.94265" y="-141.91861" width="118.64" height="26.391998" stroke="black" stroke-linecap="round" stroke-linejoin="round" stroke-width="1"/>
        <text transform="translate(470.94265 -136.91861)" fill="black">
          <tspan font-family="Helvetica Neue" font-size="14" fill="black" x="0" y="13">lj:inBandTogether</tspan>
        </text>
      </g>
      <g id="Graphic_78">
        <rect x="451.23965" y="23.007695" width="125.948" height="26.391998" fill="white"/>
        <rect x="451.23965" y="23.007695" width="125.948" height="26.391998" stroke="black" stroke-linecap="round" stroke-linejoin="round" stroke-width="1"/>
        <text transform="translate(456.23965 28.007695)" fill="black">
          <tspan font-family="Helvetica Neue" font-size="14" fill="black" x="14921397e-20" y="13">semlab:memberOf</tspan>
        </text>
      </g>
      <g id="Graphic_80">
        <rect x="446.06803" y="90.91786" width="136.532" height="26.391998" fill="white"/>
        <rect x="446.06803" y="90.91786" width="136.532" height="26.391998" stroke="black" stroke-linecap="round" stroke-linejoin="round" stroke-width="1"/>
        <text transform="translate(451.06803 95.91786)" fill="black">
          <tspan font-family="Helvetica Neue" font-size="14" fill="black" x="0" y="13">semlab:grewUpWith</tspan>
        </text>
      </g>
      <g id="Graphic_82">
        <rect x="461.78566" y="-11.041583" width="110.1" height="26.391998" fill="white"/>
        <rect x="461.78566" y="-11.041583" width="110.1" height="26.391998" stroke="black" stroke-linecap="round" stroke-linejoin="round" stroke-width="1"/>
        <text transform="translate(466.78566 -6.0415834)" fill="black">
          <tspan font-family="Helvetica Neue" font-size="14" fill="black" x="0" y="13">lj:bandLeaderOf</tspan>
        </text>
      </g>
      <g id="Graphic_88">
        <rect x="452.0976" y="163.63712" width="118.654" height="26.391998" fill="white"/>
        <rect x="452.0976" y="163.63712" width="118.654" height="26.391998" stroke="black" stroke-linecap="round" stroke-linejoin="round" stroke-width="1"/>
        <text transform="translate(457.0976 168.63712)" fill="black">
          <tspan font-family="Helvetica Neue" font-size="14" fill="black" x="0" y="13">semlab:relativeOf</tspan>
        </text>
      </g>
      <g id="Graphic_90">
        <rect x="446.73766" y="199.3946" width="143.56" height="26.391998" fill="white"/>
        <rect x="446.73766" y="199.3946" width="143.56" height="26.391998" stroke="black" stroke-linecap="round" stroke-linejoin="round" stroke-width="1"/>
        <text transform="translate(451.73766 204.3946)" fill="black">
          <tspan font-family="Helvetica Neue" font-size="14" fill="black" x="6679102e-19" y="13">semlab:recordedWith</tspan>
        </text>
      </g>
      <g id="Graphic_92">
        <rect x="460.1848" y="267.41606" width="110.1" height="26.391998" fill="white"/>
        <rect x="460.1848" y="267.41606" width="110.1" height="26.391998" stroke="black" stroke-linecap="round" stroke-linejoin="round" stroke-width="1"/>
        <text transform="translate(465.1848 272.41606)" fill="black">
          <tspan font-family="Helvetica Neue" font-size="14" fill="black" x="0" y="13">lj:bandLeaderOf</tspan>
        </text>
      </g>
      <g id="Graphic_94">
        <rect x="440.5903" y="234.02135" width="164.56" height="26.391998" fill="white"/>
        <rect x="440.5903" y="234.02135" width="164.56" height="26.391998" stroke="black" stroke-linecap="round" stroke-linejoin="round" stroke-width="1"/>
        <text transform="translate(445.5903 239.02135)" fill="black">
          <tspan font-family="Helvetica Neue" font-size="14" fill="black" x="6536993e-19" y="13">semlab:photographedBy</tspan>
        </text>
      </g>
      <g id="Graphic_24">
        <rect x="488.0206" y="-409.5874" width="75.59" height="26.391998" fill="white"/>
        <rect x="488.0206" y="-409.5874" width="75.59" height="26.391998" stroke="black" stroke-linecap="round" stroke-linejoin="round" stroke-width="1"/>
        <text transform="translate(493.0206 -404.5874)" fill="black">
          <tspan font-family="Helvetica Neue" font-size="14" fill="black" x="7105427e-20" y="13">lj:knowsOf</tspan>
        </text>
      </g>
      <g id="Graphic_30">
        <rect x="472.67107" y="-377.07587" width="101.266" height="26.391998" fill="white"/>
        <rect x="472.67107" y="-377.07587" width="101.266" height="26.391998" stroke="black" stroke-linecap="round" stroke-linejoin="round" stroke-width="1"/>
        <text transform="translate(477.67107 -372.07587)" fill="black">
          <tspan font-family="Helvetica Neue" font-size="14" fill="black" x="0" y="13">lj:influencedBy</tspan>
        </text>
      </g>
      <g id="Graphic_62">
        <rect x="462.2198" y="-344.3714" width="116.302" height="26.391998" fill="white"/>
        <rect x="462.2198" y="-344.3714" width="116.302" height="26.391998" stroke="black" stroke-linecap="round" stroke-linejoin="round" stroke-width="1"/>
        <text transform="translate(467.2198 -339.3714)" fill="black">
          <tspan font-family="Helvetica Neue" font-size="14" fill="black" x="0" y="13">lj:playedTogether</tspan>
        </text>
      </g>
      <g id="Graphic_64">
        <rect x="458.7541" y="-310.90485" width="127.992" height="26.391998" fill="white"/>
        <rect x="458.7541" y="-310.90485" width="127.992" height="26.391998" stroke="black" stroke-linecap="round" stroke-linejoin="round" stroke-width="1"/>
        <text transform="translate(463.7541 -305.90485)" fill="black">
          <tspan font-family="Helvetica Neue" font-size="14" fill="black" x="0" y="13">rel:acquaintanceOf</tspan>
        </text>
      </g>
      <g id="Graphic_84">
        <rect x="448.91987" y="126.5545" width="134.46" height="26.391998" fill="white"/>
        <rect x="448.91987" y="126.5545" width="134.46" height="26.391998" stroke="black" stroke-linecap="round" stroke-linejoin="round" stroke-width="1"/>
        <text transform="translate(453.91987 131.5545)" fill="black">
          <tspan font-family="Helvetica Neue" font-size="14" fill="black" x="0" y="13">semlab:visitedPlace</tspan>
        </text>
      </g>
      <g id="Graphic_54">
        <rect x="-190.62827" y="102.60709" width="177" height="26.391998" fill="white"/>
        <rect x="-190.62827" y="102.60709" width="177" height="26.391998" stroke="black" stroke-linecap="round" stroke-linejoin="round" stroke-width="1"/>
        <text transform="translate(-185.62827 107.60709)" fill="black">
          <tspan font-family="Helvetica Neue" font-size="14" fill="black" x="13.738" y="13">semlab:demographica</tspan>
        </text>
      </g>
      <g id="Graphic_55">
        <rect x="-160.8832" y="151.64322" width="149.524" height="26.391998" fill="white"/>
        <rect x="-160.8832" y="151.64322" width="149.524" height="26.391998" stroke="black" stroke-linecap="round" stroke-linejoin="round" stroke-width="1"/>
        <text transform="translate(-155.8832 156.64322)" fill="black">
          <tspan font-family="Helvetica Neue" font-size="14" fill="black" x="7.917001" y="13">semlab:wikidataQId</tspan>
        </text>
      </g>
      <g id="Graphic_58">
        <rect x="-161.81537" y="195.05489" width="101.294" height="26.391998" fill="white"/>
        <rect x="-161.81537" y="195.05489" width="101.294" height="26.391998" stroke="black" stroke-linecap="round" stroke-linejoin="round" stroke-width="1"/>
        <text transform="translate(-156.81537 200.05489)" fill="black">
          <tspan font-family="Helvetica Neue" font-size="14" fill="black" x="8455459e-19" y="13">schema:image</tspan>
        </text>
      </g>
      <g id="Graphic_96">
        <rect x="-161.73338" y="237.28908" width="124.114" height="26.391998" fill="white"/>
        <rect x="-161.73338" y="237.28908" width="124.114" height="26.391998" stroke="black" stroke-linecap="round" stroke-linejoin="round" stroke-width="1"/>
        <text transform="translate(-156.73338 242.28908)" fill="black">
          <tspan font-family="Helvetica Neue" font-size="14" fill="black" x="68922645e-20" y="13">semlab:residentOf</tspan>
        </text>
      </g>
      <g id="Graphic_134">
        <rect x="-165.02135" y="280.09673" width="129.294" height="26.391998" fill="white"/>
        <rect x="-165.02135" y="280.09673" width="129.294" height="26.391998" stroke="black" stroke-linecap="round" stroke-linejoin="round" stroke-width="1"/>
        <text transform="translate(-160.02135 285.09673)" fill="black">
          <tspan font-family="Helvetica Neue" font-size="14" fill="black" x="8384404e-19" y="13">semlab:occupation</tspan>
        </text>
      </g>
      <g id="Graphic_139">
        <rect x="-195.00578" y="322.46575" width="190.208" height="26.391998" fill="white"/>
        <rect x="-195.00578" y="322.46575" width="190.208" height="26.391998" stroke="black" stroke-linecap="round" stroke-linejoin="round" stroke-width="1"/>
        <text transform="translate(-190.00578 327.46575)" fill="black">
          <tspan font-family="Helvetica Neue" font-size="14" fill="black" x="0" y="13">semlab:countryOfCitizenship</tspan>
        </text>
      </g>
      <g id="Graphic_144">
        <rect x="-172.17075" y="367.64534" width="146.15" height="26.391998" fill="white"/>
        <rect x="-172.17075" y="367.64534" width="146.15" height="26.391998" stroke="black" stroke-linecap="round" stroke-linejoin="round" stroke-width="1"/>
        <text transform="translate(-167.17076 372.64534)" fill="black">
          <tspan font-family="Helvetica Neue" font-size="14" fill="black" x="73896445e-20" y="13">semlab:streetAddress</tspan>
        </text>
      </g>
      <g id="Graphic_148">
        <rect x="1313.4482" y="380.75792" width="246.55176" height="42" fill="white"/>
        <rect x="1313.4482" y="380.75792" width="246.55176" height="42" stroke="black" stroke-linecap="round" stroke-linejoin="round" stroke-width="1"/>
        <text transform="translate(1318.4482 392.53392)" fill="black">
          <tspan font-family="Helvetica Neue" font-size="16" fill="black" x="2.555879" y="15">semlab:crowdSourceConsensus</tspan>
        </text>
      </g>
      <g id="Line_147">
        <line x1="1128" y1="271.27216" x2="1313.4482" y2="401.75792" stroke="black" stroke-linecap="round" stroke-linejoin="round" stroke-width="1"/>
      </g>
      <g id="Line_149">
        <line x1="899" y1="208.25089" x2="998" y2="134.73168" stroke="black" stroke-linecap="round" stroke-linejoin="round" stroke-width="1"/>
      </g>
      <g id="Line_150">
        <line x1="899" y1="208.25089" x2="998" y2="271.27216" stroke="black" stroke-linecap="round" stroke-linejoin="round" stroke-width="1"/>
      </g>
    </g>
  </g>
</svg>
